<svg width="101" height="101" viewBox="0 0 101 101" fill="none" xmlns="http://www.w3.org/2000/svg">
<g id="email 1" clip-path="url(#clip0_146_20)">
<path id="Vector" d="M98.8927 6.71903L61.9619 33.418L55.9019 37.8092C52.6916 40.181 48.3096 40.181 45.0993 37.8092L39.0393 33.418L2.06445 6.76288C4.12102 3.88685 7.44311 2.18474 10.9789 2.19585H90.0223C93.5321 2.19894 96.8289 3.88006 98.8927 6.71903Z" fill="#FFD54F"/>
<g id="Group">
<path id="Vector_2" d="M2.06408 6.76294L39.0389 33.4181L3.20588 69.2511C1.14828 67.1883 -0.00505018 64.3922 9.58786e-05 61.4785V13.1743C-0.00957871 10.8722 0.713133 8.62684 2.06408 6.76294Z" fill="#FFC107"/>
<path id="Vector_3" d="M101 13.1742V61.4786C101.005 64.3923 99.8516 67.1884 97.794 69.2512L61.9609 33.4182L98.8917 6.71899C100.263 8.59175 101.001 10.8529 101 13.1742Z" fill="#FFC107"/>
</g>
<path id="Vector_4" d="M65.8694 81.2394C62.9536 81.2394 61.4781 79.0437 61.4781 74.6525C61.55 68.5169 56.6345 63.4851 50.4989 63.4133C44.3634 63.3414 39.3316 68.2569 39.2597 74.3925C39.1879 80.528 44.1034 85.5598 50.2389 85.6317C53.5273 85.6702 56.6637 84.2499 58.8038 81.7532C60.2618 84.2517 62.9787 85.7426 65.8694 85.6306C74.652 85.6306 74.652 77.3663 74.652 74.6525C74.6522 61.3137 63.8391 50.5002 50.5004 50.4998C37.1616 50.4993 26.3481 61.3126 26.3477 74.6516C26.3475 87.9904 37.1605 98.8039 50.4993 98.8043C56.7662 98.8046 62.7879 96.3686 67.2921 92.0116C68.1641 91.1627 68.1826 89.7679 67.3339 88.8959C66.485 88.024 65.0903 88.0055 64.2183 88.8541C56.3632 96.4306 43.8533 96.2046 36.2769 88.3494C28.7004 80.4943 28.9264 67.9844 36.7816 60.408C44.6367 52.8315 57.1466 53.0576 64.723 60.9127C68.2808 64.6014 70.2664 69.528 70.2608 74.6527C70.2608 79.5752 69.1542 81.2394 65.8694 81.2394ZM50.5 81.2394C46.8621 81.2394 43.913 78.2903 43.913 74.6525C43.913 71.0146 46.8621 68.0655 50.5 68.0655C54.1378 68.0655 57.0869 71.0146 57.0869 74.6525C57.0869 78.2903 54.1378 81.2394 50.5 81.2394Z" fill="#455A64"/>
<path id="Vector_5" d="M61.9607 33.418L55.9007 37.8092C52.6904 40.1809 48.3084 40.1809 45.0981 37.8092L39.0381 33.418L3.20508 69.251C5.26782 71.3086 8.06398 72.4619 10.9777 72.4566H22.0656C23.2535 56.7543 36.9455 44.9879 52.648 46.1759C66.6986 47.2388 77.8657 58.406 78.9287 72.4566H90.0211C92.9348 72.4617 95.731 71.3086 97.7937 69.251L61.9607 33.418Z" fill="#FFA000"/>
</g>
<defs>
<clipPath id="clip0_146_20">
<rect width="101" height="101" fill="white"/>
</clipPath>
</defs>
</svg>
