<svg width="101" height="101" viewBox="0 0 101 101" fill="none" xmlns="http://www.w3.org/2000/svg">
<g id="x-button 1" clip-path="url(#clip0_146_64)">
<path id="Vector" d="M50.5 101C78.3904 101 101 78.3904 101 50.5C101 22.6096 78.3904 0 50.5 0C22.6096 0 0 22.6096 0 50.5C0 78.3904 22.6096 101 50.5 101Z" fill="#E21B1B"/>
<path id="Vector_2" d="M100.661 56.2806L72.5763 28.1963L29.6387 72.7136L57.4389 100.514C80.1592 97.3892 98.052 79.1603 100.661 56.2806Z" fill="#C40606"/>
<g id="Group">
<path id="Vector_3" d="M69.9059 73.2911C68.8959 73.2911 67.8875 72.906 67.1158 72.1359L28.881 33.8995C27.3392 32.3577 27.3392 29.8611 28.881 28.3208C30.4228 26.7806 32.9194 26.779 34.4597 28.3208L72.696 66.5572C74.2379 68.099 74.2379 70.5956 72.696 72.1359C71.9243 72.906 70.9159 73.2911 69.9059 73.2911Z" fill="white"/>
<path id="Vector_4" d="M31.6692 73.2912C30.6592 73.2912 29.6507 72.9061 28.879 72.136C27.3372 70.5942 27.3372 68.0976 28.879 66.5573L67.1154 28.3209C68.6572 26.7791 71.1538 26.7791 72.6941 28.3209C74.2343 29.8628 74.2359 32.3593 72.6941 33.8996L34.4593 72.136C33.6892 72.9061 32.6792 73.2912 31.6692 73.2912Z" fill="white"/>
</g>
</g>
<defs>
<clipPath id="clip0_146_64">
<rect width="101" height="101" fill="white"/>
</clipPath>
</defs>
</svg>
