<svg width="101" height="101" viewBox="0 0 101 101" fill="none" xmlns="http://www.w3.org/2000/svg">
<g clip-path="url(#clip0_213_540)">
<path d="M50.5 101C78.3904 101 101 78.3904 101 50.5C101 22.6096 78.3904 0 50.5 0C22.6096 0 0 22.6096 0 50.5C0 78.3904 22.6096 101 50.5 101Z" fill="#3DB39E"/>
<path d="M98.5199 34.8672C97.0897 30.4707 95.0778 26.3398 92.568 22.5654L48.3633 68.6073L48.4522 73.731L50.5388 73.7179L98.5199 34.8672Z" fill="#37A18E"/>
<path d="M101.077 19.8787L92.0715 10.9816C90.8424 9.76655 88.8486 9.76655 87.6194 10.9816L49.1253 50.6322L32.525 34.2298C31.2938 33.0147 29.3021 33.0147 28.0719 34.2298L20.0898 42.1169C18.8607 43.3309 18.8607 45.3004 20.0898 46.5144L46.7326 72.836C47.4427 73.538 48.4052 73.8208 49.3304 73.7117C50.2555 73.8197 51.218 73.538 51.9281 72.836L101.077 24.2772C102.306 23.0622 102.306 21.0937 101.077 19.8787Z" fill="#F8F8F8"/>
<path d="M51.929 72.836L101.078 24.2772C102.307 23.0622 102.307 21.0937 101.078 19.8786L99.6081 18.4263L49.0505 68.1536L21.2068 41.0129L20.0918 42.1158C18.8626 43.3298 18.8626 45.2993 20.0918 46.5134L46.7336 72.836C47.4436 73.5379 48.4061 73.8207 49.3313 73.7117C50.2565 73.8207 51.219 73.5389 51.929 72.836Z" fill="#EBEBEB"/>
</g>
<defs>
<clipPath id="clip0_213_540">
<rect width="101" height="101" fill="white"/>
</clipPath>
</defs>
</svg>
