<svg width="70" height="70" viewBox="0 0 70 70" fill="none" xmlns="http://www.w3.org/2000/svg">
<g id="upload-big-arrow 1">
<g id="Group">
<g id="Group_2">
<path id="Vector" d="M18.7917 25.6132H25.8758V46.6283C25.8758 48.7604 27.6045 50.487 29.7345 50.487H40.2671C42.397 50.487 44.1259 48.7605 44.1259 46.6283V25.6132H51.2075C52.3807 25.6132 53.4354 24.9068 53.8865 23.8227C54.3329 22.7429 54.0845 21.4947 53.2556 20.6658L37.0484 4.45663C35.9165 3.32696 34.0827 3.32696 32.9483 4.45663L16.7439 20.6658C15.9148 21.4947 15.6664 22.7408 16.1153 23.8227C16.5661 24.9047 17.6185 25.6132 18.7917 25.6132Z" fill="#BFBFBF"/>
</g>
<g id="Group_3">
<path id="Vector_2" d="M66.5194 33.4897C64.599 33.4897 63.0412 35.0479 63.0412 36.9702V51.5234C63.0412 55.883 59.4922 59.4295 55.1324 59.4295H14.8673C10.5075 59.4295 6.96097 55.883 6.96097 51.5234V36.9702C6.96097 35.0479 5.40071 33.4897 3.48049 33.4897C1.55798 33.4897 0 35.0479 0 36.9704V51.5235C0 59.7212 6.66935 66.3908 14.8673 66.3908H55.1324C63.3303 66.3908 70 59.7213 70 51.5235V36.9704C70 35.0479 68.4419 33.4897 66.5194 33.4897Z" fill="#BFBFBF"/>
</g>
</g>
</g>
</svg>
