<svg width="25" height="25" viewBox="0 0 25 25"  xmlns="http://www.w3.org/2000/svg">
<g id="close 1">
<path id="Vector" d="M1.79359 23.207C1.86615 23.2796 1.95231 23.3372 2.04715 23.3766C2.14199 23.4159 2.24365 23.4361 2.34632 23.4361C2.44899 23.4361 2.55065 23.4159 2.64549 23.3766C2.74034 23.3372 2.8265 23.2796 2.89906 23.207L12.5006 13.6054L22.1061 23.207C22.2527 23.3536 22.4515 23.4359 22.6588 23.4359C22.8661 23.4359 23.065 23.3536 23.2116 23.207C23.3582 23.0604 23.4405 22.8616 23.4405 22.6542C23.4405 22.4469 23.3582 22.2481 23.2116 22.1015L13.6061 12.4999L23.2077 2.89448C23.3542 2.74788 23.4366 2.54906 23.4366 2.34174C23.4366 2.13443 23.3542 1.9356 23.2077 1.78901C23.0611 1.64241 22.8622 1.56006 22.6549 1.56006C22.4476 1.56006 22.2488 1.64241 22.1022 1.78901L12.5006 11.3945L2.89515 1.79291C2.7457 1.66493 2.55345 1.59805 2.35683 1.60564C2.16021 1.61324 1.97369 1.69474 1.83455 1.83388C1.69542 1.97302 1.61391 2.15953 1.60631 2.35615C1.59872 2.55278 1.6656 2.74502 1.79359 2.89448L11.3952 12.4999L1.79359 22.1054C1.64808 22.2518 1.56641 22.4498 1.56641 22.6562C1.56641 22.8626 1.64808 23.0606 1.79359 23.207Z" />
</g>
</svg>
